<svg id="Layer_1" data-name="Layer 1" xmlns="http://www.w3.org/2000/svg" viewBox="0 0 500 58.9"><defs><style>.cls-1{fill:#81b441;}</style></defs><path class="cls-1" d="M671.15,470.55a9,9,0,0,1,.53,3.92q0,13.56,0,27.12c0,.93-.31,1.94.51,3,3.95-2.78,7.12-6.4,10.76-9.46,2.65-2.23,5.13-4.67,7.68-7a4.47,4.47,0,0,1,2.27-1.33c1.25-.2,2.66-.5,3.43.76s-.55,2.07-1.34,2.81c-4.5,4.18-9,8.42-13.6,12.42-1.95,1.67-1.65,2.82-.18,4.5,5,5.76,10,11.58,14.91,17.43.76.89,2.61,1.91,1,3.24a3.27,3.27,0,0,1-4.79-.55c-3.1-3.54-6.15-7.13-9.22-10.71-1.73-2-3.39-4.12-5.24-6-.78-.79-1.23-2.79-2.68-2s-3.56,1.88-3.53,4.3,0,4.61,0,6.91c0,1.77,0,3.55,0,5.32s-.22,3.3-2.47,3.35-2.4-1.61-2.4-3.29q0-14.51,0-29,0-11,0-22.07a6.1,6.1,0,0,1,.61-3.61Z" transform="translate(-250 -470.55)"/><path class="cls-1" d="M750,528c-7.1,3.5-13.49.39-14.71-7.29-.79-5-.21-10.08-.31-15.12-.08-3.54,0-7.08,0-10.63s0-3.49-3.55-3.59c-1.36,0-3,.36-3.42-1.66s.44-3,3.07-3.17c3.87-.22,3.87-.22,3.88-4.12,0-1.24,0-2.48,0-3.72,0-1.64.79-2.41,2.47-2.4s2.4.91,2.4,2.5c0,1.77.06,3.54,0,5.31s.66,2.47,2.38,2.42c1.33,0,2.67,0,4,0a2.3,2.3,0,0,1,2.53,2.47c0,1.7-.91,2.39-2.53,2.34a4.87,4.87,0,0,0-.54,0c-5.82.16-5.82.16-5.82,5.83v19.66a23.57,23.57,0,0,0,.08,2.66c.41,3.66,1.66,4.75,5.37,4.73,1.75,0,3.65-.45,4.68,1.61Z" transform="translate(-250 -470.55)"/><path class="cls-1" d="M293.62,503.52c-.17,5.65-.95,11.24-4.13,16.2-6.28,9.8-19.94,12.41-30,5.76a20.86,20.86,0,0,1-5.7-29.49,6.44,6.44,0,0,1,.82-1.05c.61-.56,1.09-1.7,2.14-1.09.84.5.32,1.45.19,2.21-.73,4.06-.9,8.09.5,12.06.24.7.3,1.83,1.3,1.76s.79-1.2.85-1.93c.86-10.64,6.18-18.64,14.86-24.63a14,14,0,0,1,2.58-1.41c7.57-3.1,11.33-1.26,13.73,5.38A51,51,0,0,1,293.62,503.52Z" transform="translate(-250 -470.55)"/><path d="M325.91,510.61c-4.1,0-8.21.05-12.32,0-1.93,0-2.26.65-1.75,2.41,2.29,7.88,12.24,11.36,19.49,6.71,1.12-.71,2.1-1.64,3.17-2.43,1.8-1.33,3.64-1.47,5.35.1a4,4,0,0,1-.09,5.54,17.81,17.81,0,0,1-10,5.8c-12.89,2.55-23.88-3.07-26.92-15.18-3.14-12.55,3.91-24.29,16.15-26.87,12.95-2.73,23.75,5.52,24.4,18.62.17,3.39-1.43,5.22-4.86,5.28-4.2.09-8.4,0-12.6,0Zm-3.31-6.71c2.95,0,5.9,0,8.85,0,2.71,0,3.12-.61,2.34-3.21-1.48-5-5.56-7.5-11.68-7.15-4.72.28-9.54,4.35-10.43,8.66-.31,1.48.38,1.7,1.54,1.7Z" transform="translate(-250 -470.55)"/><path d="M513.65,529.26c-12.92,0-22.34-9.09-22.29-21.54s9.32-21.36,22.14-21.38c13,0,22.42,8.93,22.51,21.36C536.1,519.9,526.4,529.25,513.65,529.26Zm-.42-7.63c8,0,13.44-5.69,13.42-14.06,0-8-5.67-13.91-13.19-13.85s-12.75,5.88-12.76,13.88S506,521.61,513.23,521.63Z" transform="translate(-250 -470.55)"/><path d="M455.64,523.89c-6.78,6.12-15.71,7.18-22.6,2.82a11.85,11.85,0,0,1,.67-20.48c4.09-2.24,8.56-3,13.13-3.35,2.22-.18,4.45-.37,6.68-.46,1.54-.06,2-.83,1.88-2.24a7.07,7.07,0,0,0-5.33-6c-4.3-1.27-8.29-.33-12.1,1.77a22.15,22.15,0,0,1-2.33,1.29,3.35,3.35,0,0,1-4.09-1.08,3.45,3.45,0,0,1-.2-4.22,6.09,6.09,0,0,1,2.38-2.09,24.59,24.59,0,0,1,20.11-2.58,13.91,13.91,0,0,1,10.39,13.62c.1,7.71,0,15.42,0,23.13,0,3-1.32,4.74-3.69,5s-4.09-1.29-4.68-4.37C455.86,524.43,455.78,524.27,455.64,523.89ZM444.3,522c6.79,0,11.32-4.33,11.55-10.89,0-1.46-.44-2.22-2-2.08-3.73.33-7.52.23-11.15,1.28a14.23,14.23,0,0,0-3.4,1.53,5,5,0,0,0-2.42,5,4.87,4.87,0,0,0,3.15,4.27A9.35,9.35,0,0,0,444.3,522Z" transform="translate(-250 -470.55)"/><path d="M356.64,492.61c4.63-5.57,10.21-7.23,16.67-5.93,6.75,1.36,11.28,7,11.48,14.48.2,7.71.1,15.42,0,23.13a4.34,4.34,0,0,1-4.43,4.64,4.42,4.42,0,0,1-4.4-4.73c-.07-6,0-12.05,0-18.08a28.21,28.21,0,0,0-.38-4.76c-.59-3.49-2-6.32-5.76-7.19-4.44-1-8.23.46-10.56,3.95a14.19,14.19,0,0,0-2.33,8.05c0,5.86,0,11.71,0,17.56,0,3-1.57,4.82-4.06,5-2.89.23-4.77-1.53-4.78-4.72-.05-8.16,0-16.32,0-24.47,0-2.66,0-5.32,0-8,0-3.1,1.45-4.83,4-4.93s3.93,1.4,4.34,4.4Z" transform="translate(-250 -470.55)"/><path class="cls-1" d="M549.77,491.44c2.89-2.53,5.65-4.6,9.26-5.12,5.76-.83,10.89.21,14.54,5.13,1.18,1.6,1.76.42,2.43-.28a17.16,17.16,0,0,1,13.31-5.2c8,.17,13,5.42,13.17,14.1.19,8.51,0,17,.06,25.54,0,1.56-.26,2.89-2.25,2.9s-2.63-1.18-2.63-2.93q0-9.84,0-19.69c0-1.5,0-3,0-4.52,0-5.84-1.63-8.9-5.22-10.08a13.12,13.12,0,0,0-14,4.24,12.56,12.56,0,0,0-2.64,7.92c0,6.83,0,13.66,0,20.49,0,.71,0,1.42,0,2.13,0,1.45-.57,2.39-2.17,2.43s-2.35-.93-2.35-2.52c0-6.38,0-12.77,0-19.15a50.8,50.8,0,0,0-.27-7.7c-.51-3.24-1-6.52-4.72-7.67-4.23-1.33-8.38-1.08-11.81,2.09a14.54,14.54,0,0,0-5,11.06c0,6.83,0,13.66,0,20.49,0,1.62.14,3.39-2.28,3.41s-2.65-1.61-2.65-3.45c0-11.53,0-23.06,0-34.59,0-1.66-.25-3.63,2.23-3.8,2.64-.18,2.69,1.74,2.72,3.6A8.87,8.87,0,0,0,549.77,491.44Z" transform="translate(-250 -470.55)"/><path d="M406.66,517.32c1.13-.58,1.16-1.57,1.47-2.34,3.25-8.06,6.46-16.13,9.69-24.19a8.84,8.84,0,0,1,1-2.14c1.37-1.82,3.22-2.58,5.4-1.68a3.89,3.89,0,0,1,2.47,4.76,20.59,20.59,0,0,1-1.28,3.76q-6,14.07-12,28.12a13.17,13.17,0,0,1-.57,1.2c-1.26,2.48-3.17,4.05-6.08,4.06a6.22,6.22,0,0,1-6-4.11Q394,509,387.32,493.21c-1.19-2.84-.21-5.25,2.2-6.24s5,.15,6.18,3c3.28,8.14,6.47,16.32,9.71,24.47C405.79,515.41,406.23,516.34,406.66,517.32Z" transform="translate(-250 -470.55)"/><path class="cls-1" d="M633.13,524.18a21.34,21.34,0,0,1-15.29,5c-8.59-.53-14.05-7.79-11.5-15.44,1.36-4.07,4.5-6.5,8.37-8.08,4.78-1.95,9.82-1.76,14.81-1.58,2.62.09,3.47-.65,3.64-3.39.53-8.46-6.65-10.69-13.14-9.57-4.17.72-7.68,2.47-8.42,7.3-.26,1.64-1.53,2.1-3,1.8s-1.93-1.5-1.64-2.86a13,13,0,0,1,8.45-9.91,20.21,20.21,0,0,1,12.9-.74c6.17,1.7,9.58,6.27,9.74,12.7.23,8.94-.78,17.91.79,26.81.19,1.11-.09,2-1.3,2.24s-2.76.35-3.47-1.18A23.43,23.43,0,0,1,633.13,524.18Zm-7.33-15.32a20.54,20.54,0,0,0-11,2.17c-3,1.65-4.46,4.09-4.14,7.11a7.27,7.27,0,0,0,5.5,5.87,15.51,15.51,0,0,0,15.46-5.07c2.23-2.85,2-6.22,1-9.1-.72-2.07-3.69-.63-5.63-1C626.82,508.83,626.64,508.86,625.8,508.86Z" transform="translate(-250 -470.55)"/><path d="M469.81,498.82c0-6.11,0-12.22,0-18.33,0-3.4,1.53-5.23,4.27-5.29s4.51,1.87,4.58,5.33c.13,6.68.13,6.68,6.86,6.87,2.79.09,4.32,1.34,4.4,3.59s-1.57,3.63-4.54,3.68c-1.43,0-2.86.09-4.28,0-1.91-.14-2.48.73-2.46,2.51.07,6.29,0,12.58.07,18.86.07,4.24,2,5.71,6.12,5.06,2.67-.42,4.32.44,4.87,2.53.51,1.93-.66,3.82-3,4.62-6.92,2.34-16.75,0-16.83-11.09,0-6.11,0-12.22,0-18.33Z" transform="translate(-250 -470.55)"/><path class="cls-1" d="M714.52,507.84c-3.85,0-7.69.08-11.53,0-2.24-.06-3.1.79-2.87,3,.61,5.72,3.19,10.34,8.63,12.49,5.28,2.09,10.57,1.7,14.78-2.83,1.16-1.25,2.29-1.63,3.65-.37,1.51,1.4.57,2.52-.41,3.64-6.4,7.29-19,7.28-25.88,0-7.81-8.25-7.92-24.11-.1-32.27,5-5.17,11-6.86,17.85-4.39s9.81,7.74,10.46,14.48c.6,6.3.44,6.32-6,6.32Zm-2.44-4.9c3.31,0,6.62,0,9.92,0,1.81,0,2.34-.81,2.1-2.5A11.35,11.35,0,0,0,713,490.82a12.9,12.9,0,0,0-12.3,10.36c-.32,1.71.61,1.76,1.78,1.76Z" transform="translate(-250 -470.55)"/><path class="cls-1" d="M648.24,490.55c3.73-3.47,7.7-5,12.29-4.55,1.17.11,2.37.3,2.87,1.58.6,1.53-.6,3-2.48,3.21-9.4.84-12.82,4.56-12.82,14q0,10.23,0,20.45c0,1.35,0,2.73-1.72,3.2-1.86.52-3.13-.49-3.15-2.74-.06-5.49,0-11,0-16.47,0-6.11,0-12.22,0-18.33,0-1.68-.54-3.81,2.08-4.18S648.12,488.22,648.24,490.55Z" transform="translate(-250 -470.55)"/></svg>